PathFileType	4	(X/Y/Z)	OpenSim_Sub08_EMGStiffKnee_Magnet.trc
DataRate	CameraRate	NumFrames	NumMarkers	Units	OrigDataRate	OrigDataStartFrame	OrigNumFrames
100	100	20	8	m	100	5514	6301
Frame#	Time	torso_imu_offset_imu	pelvis_imu_offset_imu	tibia_r_imu_offset_imu	femur_r_imu_offset_imu	tibia_l_imu_offset_imu	femur_l_imu_offset_imu	toes_r_imu_offset_imu	toes_l_imu_offset_imu
				X1	Y1	Z1	X2	Y2	Z2	X3	Y3	Z3	X4	Y4	Z4	X5	Y5	Z5	X6	Y6	Z6	X7	Y7	Z7	X8		Y8	Z8	

5514	55.13000000	-0.90755056	-0.19432600	0.16983244	-0.57908365	0.32524616	-0.68424833	-0.56489483	-0.57720896	-0.21638249	-0.73030535	-0.44489322	-0.15701827	-0.63311171	0.39250640	0.35019693	-0.69277237	0.23176059	0.40256560	-0.56190781	-0.47826958	-0.52950199	-0.71326895	-0.23772248	-0.33875454
5515	55.14000000	-0.90962274	-0.19429873	0.17357943	-0.57269868	0.32430506	-0.68233660	-0.57319201	-0.56691232	-0.20763636	-0.73436137	-0.43635037	-0.15485099	-0.63328463	0.39909287	0.35385316	-0.69323585	0.24109819	0.39641509	-0.56450178	-0.46007210	-0.53835160	-0.71451283	-0.23796856	-0.33563546
5516	55.15000000	-0.90744943	-0.19449728	0.16686264	-0.57291299	0.32026439	-0.68711935	-0.57993298	-0.56043799	-0.20151930	-0.74112578	-0.42858887	-0.14643795	-0.62803226	0.40570398	0.35360203	-0.69148891	0.24923134	0.39857799	-0.55610958	-0.44566100	-0.54228993	-0.70886073	-0.23570767	-0.33448489
5517	55.16000000	-0.90992698	-0.19664577	0.17011710	-0.57072193	0.32100888	-0.68640995	-0.59148654	-0.54806067	-0.19732224	-0.74503918	-0.42484635	-0.14649557	-0.61792520	0.41221895	0.35528191	-0.69065970	0.25116660	0.39652426	-0.55320025	-0.42411918	-0.54707866	-0.71749322	-0.23584237	-0.34068329
5518	55.17000000	-0.91216863	-0.19651601	0.17642345	-0.57352868	0.32454914	-0.68493673	-0.60610333	-0.54434626	-0.19127327	-0.74475497	-0.41981816	-0.14016682	-0.62017077	0.41617939	0.35505132	-0.68296518	0.25620569	0.40070113	-0.55114565	-0.39800350	-0.55066689	-0.71263618	-0.23596286	-0.33851940
5519	55.18000000	-0.91357634	-0.19648597	0.17552985	-0.57705678	0.32050222	-0.69194587	-0.61610883	-0.53557988	-0.19114175	-0.74876083	-0.40515632	-0.14544734	-0.61320132	0.41888192	0.35749428	-0.68702670	0.26438361	0.39640719	-0.54605568	-0.38240669	-0.54524633	-0.71543135	-0.23533959	-0.34327532
5520	55.19000000	-0.90949931	-0.19381633	0.17177606	-0.57259541	0.32272282	-0.69365129	-0.62034552	-0.52971111	-0.18252997	-0.76337860	-0.39539546	-0.14069736	-0.61185168	0.42764551	0.36162853	-0.67888124	0.26677457	0.40032167	-0.55044628	-0.36820911	-0.54944546	-0.71781111	-0.22896460	-0.34310770
5521	55.20000000	-0.90978135	-0.19035927	0.17586436	-0.57325506	0.31801135	-0.69347037	-0.62730708	-0.52062644	-0.17807575	-0.76741767	-0.38714497	-0.13692089	-0.60878627	0.43198270	0.36515664	-0.68519118	0.27331517	0.39384080	-0.54421689	-0.35371060	-0.54302581	-0.72288395	-0.22909120	-0.34531950
5522	55.21000000	-0.90742996	-0.19439693	0.17383574	-0.57659303	0.31144463	-0.69377027	-0.63641497	-0.50621160	-0.16765723	-0.77357501	-0.37867744	-0.14017087	-0.60097331	0.43835286	0.36256228	-0.67731361	0.27740583	0.40117077	-0.54275192	-0.33965893	-0.54104343	-0.72643544	-0.22431897	-0.34530487
5523	55.22000000	-0.91002410	-0.19212604	0.17610202	-0.57294479	0.30594561	-0.69761309	-0.64479010	-0.50071730	-0.16872826	-0.77151641	-0.36840214	-0.14480919	-0.60290263	0.44065385	0.36768499	-0.68545648	0.27937517	0.40030023	-0.53864312	-0.32944347	-0.53514038	-0.72300913	-0.22012138	-0.34767106
5524	55.23000000	-0.91179569	-0.19152622	0.17630847	-0.58123439	0.30743609	-0.69293903	-0.65088813	-0.49588319	-0.16798776	-0.77945516	-0.35754364	-0.14194031	-0.59376437	0.44730047	0.37066042	-0.67461648	0.27927389	0.39819777	-0.53503096	-0.31461754	-0.53296725	-0.73411656	-0.21823587	-0.35012646
5525	55.24000000	-0.90978793	-0.18358132	0.18000063	-0.57638397	0.30195165	-0.69562270	-0.65554156	-0.48318880	-0.16195598	-0.79182198	-0.34358337	-0.13394077	-0.58949699	0.44892040	0.36706163	-0.68166266	0.27931129	0.40109648	-0.53403726	-0.29911681	-0.52568826	-0.73128092	-0.21810438	-0.35208449
5526	55.25000000	-0.90994831	-0.18581955	0.17784118	-0.57931299	0.30525289	-0.69808549	-0.66250125	-0.47565832	-0.16016455	-0.79153227	-0.33285178	-0.13971093	-0.58289874	0.44927000	0.37779184	-0.67354241	0.27926320	0.40820712	-0.53771855	-0.29301709	-0.52946543	-0.73720415	-0.21307546	-0.35224215
5527	55.26000000	-0.90989083	-0.18387110	0.18053061	-0.58016984	0.29260047	-0.69936805	-0.67072650	-0.46822794	-0.15861938	-0.79413916	-0.31890035	-0.13907939	-0.58080309	0.45368704	0.37517097	-0.66613513	0.27974413	0.41370154	-0.53132823	-0.28331734	-0.52111315	-0.74826563	-0.20724558	-0.35416834
5528	55.27000000	-0.90996063	-0.18573723	0.18435928	-0.57665270	0.29287153	-0.69510435	-0.67585238	-0.45236947	-0.16102627	-0.79705314	-0.31255104	-0.13275138	-0.57402647	0.45591683	0.37913544	-0.67024888	0.28174603	0.40730818	-0.52761956	-0.28332447	-0.52395657	-0.74964015	-0.20638463	-0.35205790
5529	55.28000000	-0.91006269	-0.18098688	0.17991606	-0.58284706	0.28676348	-0.69984092	-0.68362250	-0.45054074	-0.15627718	-0.80554028	-0.30016527	-0.13371022	-0.57225473	0.46320298	0.37497941	-0.66337218	0.28210450	0.41741288	-0.52594156	-0.27190040	-0.52387643	-0.75076305	-0.19335669	-0.35767377
5530	55.29000000	-0.91055089	-0.17767822	0.18446102	-0.58295718	0.28880352	-0.69910357	-0.68436306	-0.43705189	-0.15522765	-0.80739251	-0.29227474	-0.13364406	-0.56792119	0.47108329	0.38584398	-0.66430000	0.28869631	0.42276501	-0.52692845	-0.25804068	-0.52683978	-0.75749656	-0.19142707	-0.36307131
5531	55.30000000	-0.91417812	-0.18177666	0.18402833	-0.58691753	0.28236402	-0.69728447	-0.69327393	-0.42482159	-0.15454758	-0.81059838	-0.28356500	-0.13167437	-0.56307474	0.46882548	0.38534189	-0.66361756	0.28991203	0.41799694	-0.53279499	-0.25285123	-0.53232684	-0.75999549	-0.18547871	-0.35713619
5532	55.31000000	-0.91004222	-0.17911417	0.18229032	-0.58654523	0.28265540	-0.70182512	-0.69806713	-0.41494181	-0.14670280	-0.81866454	-0.27097951	-0.12982671	-0.55673059	0.47355517	0.38982805	-0.65976874	0.28624490	0.41920197	-0.52836478	-0.24834879	-0.52854720	-0.76662703	-0.18747881	-0.36256372
5533	55.32000000	-0.91253182	-0.17743344	0.18669939	-0.58692593	0.28071055	-0.70167164	-0.70861793	-0.40810459	-0.15464871	-0.81639886	-0.26127428	-0.12843771	-0.55466047	0.47554190	0.39458745	-0.66142974	0.29044317	0.42760895	-0.52685271	-0.23988700	-0.53778455	-0.77186249	-0.18071207	-0.34771512
